<?xml version="1.0" encoding="iso-8859-1"?>
<!-- Generator: Adobe Illustrator 19.0.0, SVG Export Plug-In . SVG Version: 6.00 Build 0)  -->
<svg version="1.1" id="Capa_1" xmlns="http://www.w3.org/2000/svg" xmlns:xlink="http://www.w3.org/1999/xlink" x="0px" y="0px"
	 viewBox="0 0 470 470" style="enable-background:new 0 0 470 470;" xml:space="preserve">
<g>
	<path style="fill:#FFFFFF;" d="M187.174,321.799L235,383.433l47.826-61.634c-15.016-5.118-31.1-7.905-47.826-7.905
		S202.19,316.681,187.174,321.799z"/>
	<rect x="156.394" y="435" style="fill:#FF382E;" width="157.213" height="20"/>
	<path style="fill:#FFB8B4;" d="M351.106,455h32.313c-2.823-56.499-37.35-104.787-86.109-127.4L225.612,420h95.494
		c4.143,0,7.5,3.357,7.5,7.5v35h15C343.606,458.357,346.964,455,351.106,455z"/>
	<path style="fill:#FF8882;" d="M148.894,420h57.732l18.881-24.333L172.689,327.6C123.93,350.213,89.403,398.501,86.58,455h32.313
		c4.143,0,7.5,3.357,7.5,7.5h15v-35C141.394,423.357,144.751,420,148.894,420z"/>
	<path style="fill:#FFFFFF;" d="M269.034,126.534c-5.756,7.011-14.497,11.633-23.656,11.633h-20.758
		c-9.158,0-17.9-4.622-23.656-11.634c-22.37,12.329-36.518,35.944-36.518,61.808c0,38.903,31.649,70.553,70.553,70.553
		s70.553-31.649,70.553-70.553C305.553,162.476,291.405,138.862,269.034,126.534z M222.799,194.341c0,4.143-3.357,7.5-7.5,7.5
		c-3.628,0-6.655-2.577-7.35-6h-9.92c-4.143,0-7.5-3.357-7.5-7.5s3.357-7.5,7.5-7.5h17.27c4.143,0,7.5,3.357,7.5,7.5V194.341z
		 M271.971,195.841h-9.92c-0.694,3.423-3.722,6-7.35,6c-4.143,0-7.5-3.357-7.5-7.5v-6c0-4.143,3.357-7.5,7.5-7.5h17.27
		c4.143,0,7.5,3.357,7.5,7.5S276.113,195.841,271.971,195.841z"/>
	<path style="fill:#FF382E;" d="M204.846,78.662l0.978,6.922c0.003,0.022,3.424,24.229,3.424,24.229
		c0.188,1.331,0.583,2.622,1.142,3.846c0.028,0.06,0.062,0.115,0.088,0.176c2.549,5.362,8.255,9.331,14.143,9.331h20.758
		c5.876,0,11.571-3.954,14.113-9.264c0.01-0.022,0.016-0.045,0.026-0.068c0.034-0.077,0.075-0.147,0.111-0.222
		c0.548-1.21,0.937-2.485,1.123-3.8l4.402-31.151c0.436-3.084-0.322-5.932-2.135-8.018c-1.813-2.087-4.525-3.236-7.641-3.236
		h-40.758c-3.115,0-5.828,1.149-7.641,3.236C205.168,72.73,204.41,75.578,204.846,78.662z"/>
	<path style="fill:#655F5E;" d="M277.667,97.313l-2.063,14.6c-0.048,0.342-0.109,0.68-0.17,1.019
		c27.604,14.81,45.107,43.704,45.119,75.378c0.001,0.031,0.001,26.69,0.001,26.69c0,4.136,3.364,7.5,7.5,7.5s7.5-3.364,7.5-7.5
		v-26.659C335.554,149.24,312.634,113.76,277.667,97.313z"/>
	<path style="fill:#3F3736;" d="M149.446,215v-26.659c0.013-31.704,17.516-60.598,45.12-75.408c-0.061-0.339-0.122-0.678-0.17-1.02
		l-2.063-14.6c-34.967,16.446-57.887,51.925-57.887,91.027V215c0,4.136,3.364,7.5,7.5,7.5S149.446,219.136,149.446,215z"/>
	<path style="fill:#3F3736;" d="M156.126,104.008c9.801-9.195,21.264-16.75,34.024-22.14l-0.156-1.106
		c-1.039-7.343,1.025-14.616,5.661-19.954c4.637-5.338,11.549-8.399,18.966-8.399h40.758c7.417,0,14.329,3.062,18.966,8.399
		c4.636,5.338,6.7,12.611,5.661,19.954l-0.156,1.106c12.76,5.391,24.223,12.946,34.024,22.141c0.379-3.16,0.58-6.348,0.58-9.555
		C314.453,50.643,278.811,15,235,15s-79.453,35.643-79.453,79.453C155.547,97.66,155.748,100.849,156.126,104.008z"/>
	<path style="fill:#1C1918;" d="M306.719,315.476l3.48-4.484c2.539-3.272,1.944-7.983-1.328-10.523
		c-3.27-2.535-7.982-1.945-10.523,1.328l-5.849,7.538c-17.897-6.741-37.273-10.44-57.499-10.44s-39.601,3.699-57.499,10.44
		l-5.849-7.538c-2.54-3.273-7.252-3.866-10.523-1.328c-3.272,2.54-3.867,7.251-1.328,10.523l3.48,4.484
		c-54.362,26.626-91.887,82.522-91.887,147.024c0,4.143,3.357,7.5,7.5,7.5h40c4.143,0,7.5-3.357,7.5-7.5s-3.357-7.5-7.5-7.5H86.58
		c2.823-56.499,37.35-104.787,86.109-127.4l52.818,68.067L206.625,420h-57.732c-4.143,0-7.5,3.357-7.5,7.5v35
		c0,4.143,3.357,7.5,7.5,7.5h172.213c4.143,0,7.5-3.357,7.5-7.5v-35c0-4.143-3.357-7.5-7.5-7.5h-95.494l71.699-92.4
		c48.759,22.613,83.286,70.901,86.109,127.4h-32.313c-4.143,0-7.5,3.357-7.5,7.5s3.357,7.5,7.5,7.5h40c4.143,0,7.5-3.357,7.5-7.5
		C398.606,397.998,361.081,342.102,306.719,315.476z M235,383.433l-47.826-61.634c15.016-5.118,31.1-7.905,47.826-7.905
		s32.81,2.787,47.826,7.905L235,383.433z M313.606,455H156.394v-20h157.213V455z"/>
	<path style="fill:#1C1918;" d="M141.946,237.5c7.188,0,13.595-3.393,17.717-8.656c14.465,26.798,42.807,45.05,75.336,45.05
		c32.529,0,60.871-18.252,75.336-45.05c4.122,5.264,10.529,8.656,17.717,8.656c12.406,0,22.5-10.094,22.5-22.5v-26.659
		c0-26.01-8.829-50.625-24.05-70.415c1.954-7.638,2.95-15.514,2.95-23.472C329.453,42.371,287.082,0,235,0
		s-94.453,42.371-94.453,94.453c0,7.958,0.996,15.834,2.949,23.472c-15.222,19.79-24.05,44.405-24.05,70.416V215
		C119.446,227.406,129.54,237.5,141.946,237.5z M235,15c43.811,0,79.453,35.643,79.453,79.453c0,3.207-0.201,6.396-0.58,9.555
		c-9.801-9.195-21.264-16.75-34.024-22.141l0.156-1.106c1.039-7.343-1.025-14.616-5.661-19.954
		c-4.637-5.338-11.549-8.399-18.966-8.399h-40.758c-7.417,0-14.329,3.062-18.966,8.399c-4.636,5.338-6.7,12.611-5.661,19.954
		l0.156,1.106c-12.76,5.391-24.223,12.946-34.024,22.14c-0.379-3.159-0.58-6.348-0.58-9.555C155.547,50.643,191.189,15,235,15z
		 M335.554,215c0,4.136-3.364,7.5-7.5,7.5s-7.5-3.364-7.5-7.5v-26.659c-0.013-31.704-17.517-60.598-45.12-75.409
		c0.061-0.339,0.122-0.677,0.17-1.019l2.063-14.6c34.968,16.446,57.887,51.926,57.887,91.027V215z M235,258.894
		c-38.903,0-70.553-31.649-70.553-70.553c0-25.864,14.148-49.478,36.518-61.808c5.756,7.012,14.498,11.634,23.656,11.634h20.758
		c9.158,0,17.899-4.622,23.656-11.633c22.37,12.328,36.518,35.943,36.518,61.807C305.553,227.244,273.903,258.894,235,258.894z
		 M134.446,215v-26.659c0-39.102,22.92-74.582,57.887-91.027l2.063,14.6c0.048,0.342,0.109,0.681,0.17,1.02
		c-27.604,14.811-45.108,43.705-45.119,75.378c-0.001,0.031-0.001,26.69-0.001,26.69c0,4.136-3.364,7.5-7.5,7.5
		S134.446,219.136,134.446,215z M214.621,67.408h40.758c3.115,0,5.828,1.149,7.641,3.236c1.813,2.086,2.57,4.934,2.135,8.018
		l-4.402,31.151c-0.186,1.314-0.575,2.589-1.123,3.8c-0.036,0.075-0.078,0.145-0.111,0.222c-0.01,0.022-0.016,0.045-0.026,0.068
		c-2.542,5.31-8.237,9.264-14.113,9.264h-20.758c-5.887,0-11.594-3.969-14.129-9.295c-0.04-0.097-0.074-0.152-0.102-0.212
		c-0.559-1.224-0.954-2.515-1.142-3.846l-3.421-24.207c-0.003-0.022-0.981-6.944-0.981-6.944c-0.436-3.084,0.322-5.932,2.135-8.018
		C208.793,68.558,211.506,67.408,214.621,67.408z"/>
	<path style="fill:#1C1918;" d="M215.299,180.841h-17.27c-4.143,0-7.5,3.357-7.5,7.5s3.357,7.5,7.5,7.5h9.92
		c0.694,3.423,3.722,6,7.35,6c4.143,0,7.5-3.357,7.5-7.5v-6C222.799,184.198,219.441,180.841,215.299,180.841z"/>
	<path style="fill:#1C1918;" d="M271.971,180.841h-17.27c-4.143,0-7.5,3.357-7.5,7.5v6c0,4.143,3.357,7.5,7.5,7.5
		c3.628,0,6.655-2.577,7.35-6h9.92c4.143,0,7.5-3.357,7.5-7.5S276.113,180.841,271.971,180.841z"/>
</g>
<g>
</g>
<g>
</g>
<g>
</g>
<g>
</g>
<g>
</g>
<g>
</g>
<g>
</g>
<g>
</g>
<g>
</g>
<g>
</g>
<g>
</g>
<g>
</g>
<g>
</g>
<g>
</g>
<g>
</g>
</svg>
