<?xml version="1.0" encoding="iso-8859-1"?>
<!-- Generator: Adobe Illustrator 19.0.0, SVG Export Plug-In . SVG Version: 6.00 Build 0)  -->
<svg version="1.1" id="Layer_1" xmlns="http://www.w3.org/2000/svg" xmlns:xlink="http://www.w3.org/1999/xlink" x="0px" y="0px"
	 viewBox="0 0 512 512" style="enable-background:new 0 0 512 512;" xml:space="preserve">
<g>
	<path style="fill:#FFFFFF;" d="M222.867,46.367L161.299,9.021c-1.277-0.774-2.742-1.184-4.235-1.184
		c-4.51,0-8.166,3.656-8.166,8.166v128.013C148.898,99.428,179.62,61.372,222.867,46.367z"/>
	<polygon style="fill:#FFFFFF;" points="148.898,144.015 148.898,144.018 148.898,144.018 	"/>
	<path style="fill:#FFFFFF;" d="M378.775,144.018v-0.003V144.018z"/>
	<path style="fill:#FFFFFF;" d="M370.61,7.837L370.61,7.837c-1.493,0-2.958,0.41-4.235,1.184l-61.569,37.346
		c43.247,15.005,73.969,53.062,73.969,97.648V16.003C378.775,11.493,375.119,7.837,370.61,7.837z"/>
	<path style="fill:#FFFFFF;" d="M396.539,504.163H131.135c-11.542,0-20.898-9.356-20.898-20.898V354.743
		c0-84.831,68.769-153.6,153.6-153.6l0,0c84.831,0,153.6,68.769,153.6,153.6v128.522
		C417.437,494.807,408.081,504.163,396.539,504.163z"/>
</g>
<path style="fill:#BFEFD9;" d="M263.837,279.855c-31.245,0-60.231-9.152-84.02-24.714v57.9c0,46.404,37.616,84.02,84.02,84.02
	s84.02-37.616,84.02-84.02v-57.9C324.068,270.703,295.081,279.855,263.837,279.855z"/>
<path style="fill:#FF6243;" d="M366.613,240.588c-0.303,0.272-0.596,0.543-0.899,0.805c-26.352,23.792-62.307,38.463-101.878,38.463
	s-75.525-14.67-101.878-38.463c-0.303-0.261-0.596-0.533-0.899-0.805c27.22-24.524,63.248-39.445,102.776-39.445
	S339.393,216.064,366.613,240.588z"/>
<ellipse style="fill:#FFFFFF;" cx="263.837" cy="144.018" rx="114.939" ry="104.49"/>
<ellipse style="fill:#FFC477;" cx="263.837" cy="159.692" rx="18.286" ry="14.629"/>
<path style="fill:#FFFFFF;" d="M378.775,286.302V165.094c0-20.775,16.842-37.616,37.616-37.616l0,0
	c20.775,0,37.616,16.842,37.616,37.616v123.298c0,20.775-16.842,37.616-37.616,37.616l0,0h-13.584"/>
<g>
	<path style="fill:#FFCD00;" d="M110.237,504.163L110.237,504.163c-28.735,0-52.245-23.51-52.245-52.245v-92.996
		c0-28.735,23.51-52.245,52.245-52.245l0,0c28.735,0,52.245,23.51,52.245,52.245v92.996
		C162.482,480.653,138.971,504.163,110.237,504.163z"/>
	<circle style="fill:#FFCD00;" cx="263.837" cy="313.281" r="33.424"/>
</g>
<g>
	<path style="fill:#FFEB99;" d="M180.245,483.265c0-14.427,11.696-26.122,26.122-26.122s26.122,11.696,26.122,26.122"/>
	<path style="fill:#FFEB99;" d="M295.184,483.265c0-14.427,11.696-26.122,26.122-26.122c14.427,0,26.122,11.696,26.122,26.122"/>
</g>
<g>
	<rect x="84.114" y="348.212" style="fill:#FFFFFF;" width="52.245" height="15.673"/>
	<rect x="84.114" y="397.584" style="fill:#FFFFFF;" width="52.245" height="15.673"/>
	<rect x="84.114" y="446.955" style="fill:#FFFFFF;" width="52.245" height="15.673"/>
</g>
<path d="M409.6,483.265c0,7.202-5.859,13.061-13.061,13.061H161.384V512h235.154c15.845,0,28.735-12.891,28.735-28.735V354.743
	H409.6V483.265z"/>
<path d="M237.714,204.097c10.493,0,19.889-4.786,26.122-12.287c6.234,7.501,15.63,12.287,26.122,12.287
	c18.725,0,33.959-15.234,33.959-33.959h-15.673c0,10.082-8.203,18.286-18.286,18.286c-6.397,0-12.029-3.308-15.297-8.298
	c9.014-3.545,15.297-11.37,15.297-20.437c0-12.387-11.719-22.465-26.122-22.465c-14.404,0-26.122,10.078-26.122,22.465
	c0,9.068,6.282,16.892,15.297,20.437c-3.268,4.989-8.9,8.298-15.297,8.298c-10.082,0-18.286-8.204-18.286-18.286h-15.673
	C203.755,188.863,218.99,204.097,237.714,204.097z M263.837,152.897c6.158,0,10.449,3.58,10.449,6.792s-4.291,6.792-10.449,6.792
	s-10.449-3.58-10.449-6.792C253.388,156.477,257.679,152.897,263.837,152.897z"/>
<path d="M316.082,110.056V94.382c-18.725,0-33.959,15.234-33.959,33.959h15.673C297.796,118.259,305.999,110.056,316.082,110.056z"
	/>
<path d="M229.878,128.342h15.673c0-18.726-15.235-33.959-33.959-33.959v15.673C221.674,110.056,229.878,118.259,229.878,128.342z"/>
<path d="M416.392,119.641c-11.751,0-22.474,4.482-30.55,11.826c-4.561-37.363-29.229-69.249-63.854-86.357l48.45-29.389
	c0.205-0.127,0.5,0.039,0.5,0.281V77.27h15.673V16.003C386.612,7.178,379.434,0,370.61,0c-2.927,0-5.797,0.802-8.3,2.321
	l-58.501,35.486c-12.537-3.96-25.983-6.117-39.973-6.117c-13.989,0-27.436,2.157-39.973,6.117L165.366,2.318
	C162.867,0.801,159.998,0,157.069,0c-8.826,0-16.008,7.182-16.008,16.008v128.007c0,29.553,12.545,56.47,33.011,76.546
	c-23.749,15.883-42.783,37.626-55.376,63.431c-2.352,4.799-4.479,9.794-6.367,14.902c-0.696-0.024-1.391-0.053-2.092-0.053
	c-33.131,0-60.083,26.952-60.083,60.082v92.996c0,33.13,26.952,60.082,60.082,60.082s60.082-26.952,60.082-60.082v-92.996
	c0-26.912-17.785-49.748-42.219-57.371c1.43-3.643,2.982-7.217,4.677-10.674c7.262-14.879,16.894-28.262,28.485-39.731
	c20.747,17.306,45.731,28.88,72.603,33.822c-5.279,5.586-9.017,12.636-10.532,20.475h-12.973v15.673h12.973
	c3.672,19.015,20.434,33.424,40.505,33.424c20.071,0,36.833-14.409,40.505-33.424h12.973v-15.673h-12.973
	c-1.514-7.838-5.253-14.889-10.532-20.475c16.269-2.993,31.844-8.419,46.21-16.073v44.145c0,42.008-34.177,76.184-76.184,76.184
	s-76.184-34.175-76.184-76.184v-37.01h-15.673v37.01c0,50.65,41.208,91.857,91.857,91.857s91.857-41.207,91.857-91.857V259.32
	c3.677-2.557,7.245-5.277,10.699-8.156c0.171,0.169,0.349,0.332,0.519,0.503c1.339,1.339,2.684,2.761,4.027,4.213v30.423h15.673
	V165.094c0-16.421,13.359-29.78,29.78-29.78c16.421,0,29.779,13.359,29.779,29.78v123.298c0,16.421-13.359,29.78-29.78,29.78
	h-13.584v15.673h13.584c25.063,0,45.453-20.39,45.453-45.453V165.094C461.845,140.031,441.455,119.641,416.392,119.641z
	 M154.645,358.922v92.996c0,24.487-19.921,44.408-44.408,44.408s-44.408-19.921-44.408-44.408v-92.996
	c0-24.487,19.921-44.408,44.408-44.408S154.645,334.435,154.645,358.922z M370.939,233.959c-5.474-4.855-11.261-9.339-17.329-13.406
	c6.673-6.547,12.501-13.821,17.329-21.677V233.959z M156.735,16.008c0-0.241,0.317-0.401,0.502-0.29l48.45,29.392
	c-20.518,10.139-37.536,25.466-48.951,44.047V16.008z M156.735,144.015c0-53.295,48.045-96.653,107.102-96.653
	s107.102,43.358,107.102,96.653s-48.045,96.653-107.102,96.653S156.735,197.31,156.735,144.015z M239.481,321.116h16.33v16.454
	C248.085,335.012,241.982,328.868,239.481,321.116z M271.484,337.699v-16.583h16.708
	C285.651,328.996,279.39,335.218,271.484,337.699z M288.192,305.442h-48.711c3.318-10.287,12.98-17.751,24.356-17.751
	S284.875,295.156,288.192,305.442z M263.837,272.018c-33.596,0-65.5-11.105-90.707-31.405c4.255-3.377,8.711-6.527,13.356-9.436
	c21.128,15.725,48.055,25.165,77.351,25.165c29.294,0,56.22-9.44,77.348-25.163c4.617,2.896,9.063,6.061,13.332,9.455
	C329.313,260.921,297.42,272.018,263.837,272.018z"/>
<rect x="395.494" y="169.273" width="15.673" height="26.122"/>
<rect x="421.616" y="169.273" width="15.673" height="26.122"/>
<path d="M206.367,464.98c10.082,0,18.286,8.203,18.286,18.286h15.673c0-18.726-15.235-33.959-33.959-33.959
	s-33.959,15.234-33.959,33.959h15.673C188.082,473.183,196.285,464.98,206.367,464.98z"/>
<path d="M321.306,464.98c10.082,0,18.286,8.203,18.286,18.286h15.673c0-18.726-15.235-33.959-33.959-33.959
	c-18.725,0-33.959,15.234-33.959,33.959h15.673C303.02,473.183,311.224,464.98,321.306,464.98z"/>
<g>
</g>
<g>
</g>
<g>
</g>
<g>
</g>
<g>
</g>
<g>
</g>
<g>
</g>
<g>
</g>
<g>
</g>
<g>
</g>
<g>
</g>
<g>
</g>
<g>
</g>
<g>
</g>
<g>
</g>
</svg>
